<mxfile host="65bd71144e">
    <diagram id="NRhTlzEI62Cv8UnVsRdp" name="Página-1">
        <mxGraphModel dx="405" dy="257" grid="1" gridSize="10" guides="1" tooltips="1" connect="1" arrows="1" fold="1" page="1" pageScale="1" pageWidth="827" pageHeight="1169" math="0" shadow="0">
            <root>
                <mxCell id="0"/>
                <mxCell id="1" parent="0"/>
                <mxCell id="6" value="" style="endArrow=classic;html=1;startArrow=none;" parent="1" edge="1">
                    <mxGeometry width="50" height="50" relative="1" as="geometry">
                        <mxPoint x="299.5" y="70" as="sourcePoint"/>
                        <mxPoint x="300" y="120" as="targetPoint"/>
                        <Array as="points">
                            <mxPoint x="299.5" y="90"/>
                        </Array>
                    </mxGeometry>
                </mxCell>
                <mxCell id="7" value="" style="shape=tape;whiteSpace=wrap;html=1;strokeColor=#1D1DF0;" parent="1" vertex="1">
                    <mxGeometry x="245" width="120" height="80" as="geometry"/>
                </mxCell>
                <mxCell id="10" value="Adote um PET" style="text;html=1;strokeColor=none;fillColor=none;align=center;verticalAlign=middle;whiteSpace=wrap;rounded=0;" parent="1" vertex="1">
                    <mxGeometry x="230" y="20" width="150" height="40" as="geometry"/>
                </mxCell>
                <mxCell id="18" style="edgeStyle=none;html=1;exitX=0.25;exitY=1;exitDx=0;exitDy=0;" parent="1" source="12" edge="1">
                    <mxGeometry relative="1" as="geometry">
                        <mxPoint x="240" y="200" as="targetPoint"/>
                    </mxGeometry>
                </mxCell>
                <mxCell id="19" style="edgeStyle=none;html=1;exitX=0.75;exitY=1;exitDx=0;exitDy=0;" parent="1" source="12" edge="1">
                    <mxGeometry relative="1" as="geometry">
                        <mxPoint x="360" y="200" as="targetPoint"/>
                    </mxGeometry>
                </mxCell>
                <mxCell id="12" value="" style="rounded=0;whiteSpace=wrap;html=1;strokeColor=#7F00FF;" parent="1" vertex="1">
                    <mxGeometry x="240" y="120" width="120" height="40" as="geometry"/>
                </mxCell>
                <mxCell id="13" value="Vc já é cadastrado?&lt;br&gt;(True or False)" style="text;html=1;strokeColor=none;fillColor=none;align=center;verticalAlign=middle;whiteSpace=wrap;rounded=0;" parent="1" vertex="1">
                    <mxGeometry x="240" y="120" width="120" height="30" as="geometry"/>
                </mxCell>
                <mxCell id="20" value="" style="rhombus;whiteSpace=wrap;html=1;strokeColor=#3399FF;" parent="1" vertex="1">
                    <mxGeometry x="210" y="200" width="60" height="50" as="geometry"/>
                </mxCell>
                <mxCell id="29" value="" style="edgeStyle=none;html=1;" parent="1" target="28" edge="1">
                    <mxGeometry relative="1" as="geometry">
                        <mxPoint x="240" y="250" as="sourcePoint"/>
                    </mxGeometry>
                </mxCell>
                <mxCell id="21" value="Sim" style="text;html=1;strokeColor=none;fillColor=none;align=center;verticalAlign=middle;whiteSpace=wrap;rounded=0;" parent="1" vertex="1">
                    <mxGeometry x="210" y="210" width="60" height="30" as="geometry"/>
                </mxCell>
                <mxCell id="26" value="" style="rhombus;whiteSpace=wrap;html=1;strokeColor=#3399FF;" parent="1" vertex="1">
                    <mxGeometry x="330" y="200" width="60" height="50" as="geometry"/>
                </mxCell>
                <mxCell id="35" value="" style="edgeStyle=none;html=1;" parent="1" source="27" target="34" edge="1">
                    <mxGeometry relative="1" as="geometry"/>
                </mxCell>
                <mxCell id="27" value="Não" style="text;html=1;strokeColor=none;fillColor=none;align=center;verticalAlign=middle;whiteSpace=wrap;rounded=0;" parent="1" vertex="1">
                    <mxGeometry x="330" y="210" width="60" height="30" as="geometry"/>
                </mxCell>
                <mxCell id="49" value="" style="edgeStyle=none;html=1;" parent="1" target="48" edge="1">
                    <mxGeometry relative="1" as="geometry">
                        <mxPoint x="200" y="365" as="sourcePoint"/>
                    </mxGeometry>
                </mxCell>
                <mxCell id="28" value="" style="rounded=1;whiteSpace=wrap;html=1;strokeColor=#00FF00;" parent="1" vertex="1">
                    <mxGeometry x="180" y="305" width="120" height="60" as="geometry"/>
                </mxCell>
                <mxCell id="34" value="" style="whiteSpace=wrap;html=1;strokeColor=#3399FF;" parent="1" vertex="1">
                    <mxGeometry x="440" y="200" width="80" height="50" as="geometry"/>
                </mxCell>
                <mxCell id="41" style="edgeStyle=none;html=1;exitX=0.5;exitY=1;exitDx=0;exitDy=0;entryX=1;entryY=0.5;entryDx=0;entryDy=0;" parent="1" source="36" target="28" edge="1">
                    <mxGeometry relative="1" as="geometry">
                        <Array as="points">
                            <mxPoint x="480" y="335"/>
                        </Array>
                    </mxGeometry>
                </mxCell>
                <mxCell id="36" value="Criate&lt;br&gt;Update&lt;br&gt;Delete&lt;br&gt;ID" style="text;html=1;strokeColor=#FFFF00;fillColor=none;align=center;verticalAlign=middle;whiteSpace=wrap;rounded=0;" parent="1" vertex="1">
                    <mxGeometry x="440" y="200" width="80" height="60" as="geometry"/>
                </mxCell>
                <mxCell id="37" value="Cadastro" style="text;html=1;strokeColor=none;fillColor=none;align=center;verticalAlign=middle;whiteSpace=wrap;rounded=0;" parent="1" vertex="1">
                    <mxGeometry x="390" y="210" width="40" height="10" as="geometry"/>
                </mxCell>
                <mxCell id="40" value="Digite seus dados&lt;br&gt;(conferencia bd)" style="text;html=1;strokeColor=none;fillColor=none;align=center;verticalAlign=middle;whiteSpace=wrap;rounded=0;" parent="1" vertex="1">
                    <mxGeometry x="190" y="310" width="90" height="40" as="geometry"/>
                </mxCell>
                <mxCell id="43" value="Analise bd" style="shape=hexagon;perimeter=hexagonPerimeter2;whiteSpace=wrap;html=1;fixedSize=1;strokeColor=#CCCC00;" parent="1" vertex="1">
                    <mxGeometry x="50" y="310" width="75" height="40" as="geometry"/>
                </mxCell>
                <mxCell id="45" value="" style="shape=flexArrow;endArrow=classic;startArrow=classic;html=1;endWidth=12.8;endSize=4.424;exitX=1;exitY=0.5;exitDx=0;exitDy=0;startWidth=12.8;startSize=4.424;" parent="1" source="43" edge="1">
                    <mxGeometry width="100" height="100" relative="1" as="geometry">
                        <mxPoint x="120" y="380" as="sourcePoint"/>
                        <mxPoint x="180" y="330" as="targetPoint"/>
                    </mxGeometry>
                </mxCell>
                <mxCell id="46" value="Entre" style="text;html=1;strokeColor=none;fillColor=none;align=center;verticalAlign=middle;whiteSpace=wrap;rounded=0;" parent="1" vertex="1">
                    <mxGeometry x="205" y="160" width="60" height="30" as="geometry"/>
                </mxCell>
                <mxCell id="47" value="Faça seu&amp;nbsp;&lt;br&gt;cadastro" style="text;html=1;strokeColor=none;fillColor=none;align=center;verticalAlign=middle;whiteSpace=wrap;rounded=0;" parent="1" vertex="1">
                    <mxGeometry x="340" y="160" width="60" height="30" as="geometry"/>
                </mxCell>
                <mxCell id="48" value="Criate animal&lt;br&gt;Update animal&amp;nbsp;&lt;br&gt;Delete animal (adotado)&lt;br&gt;Id animal" style="rounded=1;whiteSpace=wrap;html=1;strokeColor=#00FF00;" parent="1" vertex="1">
                    <mxGeometry x="60" y="445" width="140" height="55" as="geometry"/>
                </mxCell>
                <mxCell id="50" value="" style="edgeStyle=none;html=1;" parent="1" target="51" edge="1">
                    <mxGeometry relative="1" as="geometry">
                        <mxPoint x="280" y="365" as="sourcePoint"/>
                    </mxGeometry>
                </mxCell>
                <mxCell id="51" value="Add favoritos&lt;br&gt;Pesquisar&lt;br&gt;Ver mais&lt;br&gt;Adotar" style="rounded=1;whiteSpace=wrap;html=1;strokeColor=#00FF00;" parent="1" vertex="1">
                    <mxGeometry x="270" y="445" width="130" height="55" as="geometry"/>
                </mxCell>
                <mxCell id="52" value="ADM" style="text;html=1;strokeColor=none;fillColor=none;align=center;verticalAlign=middle;whiteSpace=wrap;rounded=0;" parent="1" vertex="1">
                    <mxGeometry x="125" y="380" width="60" height="30" as="geometry"/>
                </mxCell>
                <mxCell id="53" value="User" style="text;html=1;strokeColor=none;fillColor=none;align=center;verticalAlign=middle;whiteSpace=wrap;rounded=0;" parent="1" vertex="1">
                    <mxGeometry x="290" y="380" width="60" height="30" as="geometry"/>
                </mxCell>
                <mxCell id="54" value="" style="shape=flexArrow;endArrow=classic;startArrow=classic;html=1;exitX=1;exitY=0.5;exitDx=0;exitDy=0;endWidth=4.8;endSize=5.5920000000000005;width=1.6;startSize=4.247999999999999;startWidth=4.8;entryX=0;entryY=0.5;entryDx=0;entryDy=0;" parent="1" source="36" target="59" edge="1">
                    <mxGeometry width="100" height="100" relative="1" as="geometry">
                        <mxPoint x="520" y="275" as="sourcePoint"/>
                        <mxPoint x="590" y="225" as="targetPoint"/>
                        <Array as="points"/>
                    </mxGeometry>
                </mxCell>
                <mxCell id="59" value="Id:&lt;br&gt;Nome:&lt;br&gt;Idade:&lt;br&gt;Endereço:&lt;br&gt;CPF:&lt;br&gt;Email:&lt;br&gt;Senha:" style="rounded=1;whiteSpace=wrap;html=1;" parent="1" vertex="1">
                    <mxGeometry x="590" y="178.75" width="120" height="102.5" as="geometry"/>
                </mxCell>
                <mxCell id="60" value="Dados User" style="text;html=1;strokeColor=none;fillColor=none;align=center;verticalAlign=middle;whiteSpace=wrap;rounded=0;" parent="1" vertex="1">
                    <mxGeometry x="520" y="200" width="60" height="30" as="geometry"/>
                </mxCell>
                <mxCell id="64" style="edgeStyle=none;html=1;entryX=0;entryY=0.5;entryDx=0;entryDy=0;" edge="1" parent="1" source="62" target="63">
                    <mxGeometry relative="1" as="geometry"/>
                </mxCell>
                <mxCell id="62" value="Users" style="rounded=0;whiteSpace=wrap;html=1;" vertex="1" parent="1">
                    <mxGeometry x="60" y="590" width="120" height="60" as="geometry"/>
                </mxCell>
                <mxCell id="65" value="n:n" style="edgeStyle=none;html=1;entryX=1;entryY=0.5;entryDx=0;entryDy=0;" edge="1" parent="1" source="63" target="62">
                    <mxGeometry relative="1" as="geometry">
                        <mxPoint x="250" y="620" as="targetPoint"/>
                    </mxGeometry>
                </mxCell>
                <mxCell id="63" value="PETS" style="rounded=0;whiteSpace=wrap;html=1;" vertex="1" parent="1">
                    <mxGeometry x="270" y="590" width="120" height="60" as="geometry"/>
                </mxCell>
            </root>
        </mxGraphModel>
    </diagram>
</mxfile>